HIERARCHY
ROOT mixamorig:Hips
{
	OFFSET 0.000000 97.439201 0.000000
	CHANNELS 6 Xposition Yposition Zposition Xrotation Yrotation Zrotation
	JOINT mixamorig:Spine
	{
		OFFSET 0.000000 10.246803 -1.182900
		CHANNELS 3 Xrotation Yrotation Zrotation
		JOINT mixamorig:Spine1
		{
			OFFSET 0.000000 11.954597 -1.380086
			CHANNELS 3 Xrotation Yrotation Zrotation
			JOINT mixamorig:Spine2
			{
				OFFSET 0.000000 13.662361 -1.577237
				CHANNELS 3 Xrotation Yrotation Zrotation
				JOINT mixamorig:Neck
				{
					OFFSET 0.000000 15.370239 -1.774399
					CHANNELS 3 Xrotation Yrotation Zrotation
					JOINT mixamorig:Head
					{
						OFFSET 0.000000 6.121704 2.117600
						CHANNELS 3 Xrotation Yrotation Zrotation
						JOINT mixamorig:HeadTop_End
						{
							OFFSET 0.000000 23.480103 8.122100
							CHANNELS 3 Xrotation Yrotation Zrotation
							End Site
							{
								OFFSET 0.000000 24.845200 0.000000
							}
						}
					}
				}
				JOINT mixamorig:LeftShoulder
				{
					OFFSET 6.584100 13.564301 -1.766640
					CHANNELS 3 Xrotation Yrotation Zrotation
					JOINT mixamorig:LeftArm
					{
						OFFSET 13.322093 -3.531372 0.015528
						CHANNELS 3 Xrotation Yrotation Zrotation
						JOINT mixamorig:LeftForeArm
						{
							OFFSET 25.861839 0.000000 0.000001
							CHANNELS 3 Xrotation Yrotation Zrotation
							JOINT mixamorig:LeftHand
							{
								OFFSET 24.066311 0.000000 0.000001
								CHANNELS 3 Xrotation Yrotation Zrotation
								JOINT mixamorig:LeftHandThumb1
								{
									OFFSET 3.138794 -1.265854 2.647181
									CHANNELS 3 Xrotation Yrotation Zrotation
									JOINT mixamorig:LeftHandThumb2
									{
										OFFSET 2.662651 -1.537277 1.537284
										CHANNELS 3 Xrotation Yrotation Zrotation
										JOINT mixamorig:LeftHandThumb3
										{
											OFFSET 2.570145 -1.483871 1.483872
											CHANNELS 3 Xrotation Yrotation Zrotation
											JOINT mixamorig:LeftHandThumb4
											{
												OFFSET 2.200981 -1.270737 1.270736
												CHANNELS 3 Xrotation Yrotation Zrotation
												End Site
												{
													OFFSET 1.885750 -1.227737 1.735064
												}
											}
										}
									}
								}
								JOINT mixamorig:LeftHandIndex1
								{
									OFFSET 10.405411 -0.300232 2.648106
									CHANNELS 3 Xrotation Yrotation Zrotation
									JOINT mixamorig:LeftHandIndex2
									{
										OFFSET 3.184044 0.000000 0.000000
										CHANNELS 3 Xrotation Yrotation Zrotation
										JOINT mixamorig:LeftHandIndex3
										{
											OFFSET 2.887520 0.000000 0.000000
											CHANNELS 3 Xrotation Yrotation Zrotation
											JOINT mixamorig:LeftHandIndex4
											{
												OFFSET 2.475807 0.000000 0.000000
												CHANNELS 3 Xrotation Yrotation Zrotation
												End Site
												{
													OFFSET 2.475807 -0.000107 -0.006699
												}
											}
										}
									}
								}
								JOINT mixamorig:LeftHandMiddle1
								{
									OFFSET 10.112617 0.000000 0.000000
									CHANNELS 3 Xrotation Yrotation Zrotation
									JOINT mixamorig:LeftHandMiddle2
									{
										OFFSET 3.478561 0.000000 0.000000
										CHANNELS 3 Xrotation Yrotation Zrotation
										JOINT mixamorig:LeftHandMiddle3
										{
											OFFSET 3.196815 0.000000 0.000000
											CHANNELS 3 Xrotation Yrotation Zrotation
											JOINT mixamorig:LeftHandMiddle4
											{
												OFFSET 2.838127 0.000000 0.000000
												CHANNELS 3 Xrotation Yrotation Zrotation
												End Site
												{
													OFFSET 2.838097 -0.000229 -0.011498
												}
											}
										}
									}
								}
								JOINT mixamorig:LeftHandRing1
								{
									OFFSET 9.766037 0.002869 -2.231968
									CHANNELS 3 Xrotation Yrotation Zrotation
									JOINT mixamorig:LeftHandRing2
									{
										OFFSET 2.912598 0.000000 0.000000
										CHANNELS 3 Xrotation Yrotation Zrotation
										JOINT mixamorig:LeftHandRing3
										{
											OFFSET 2.743797 0.000000 0.000000
											CHANNELS 3 Xrotation Yrotation Zrotation
											JOINT mixamorig:LeftHandRing4
											{
												OFFSET 2.426300 0.000000 0.000000
												CHANNELS 3 Xrotation Yrotation Zrotation
												End Site
												{
													OFFSET 2.426300 0.000076 0.002099
												}
											}
										}
									}
								}
								JOINT mixamorig:LeftHandPinky1
								{
									OFFSET 8.462975 -0.296494 -4.344542
									CHANNELS 3 Xrotation Yrotation Zrotation
									JOINT mixamorig:LeftHandPinky2
									{
										OFFSET 2.761932 0.000000 0.000000
										CHANNELS 3 Xrotation Yrotation Zrotation
										JOINT mixamorig:LeftHandPinky3
										{
											OFFSET 2.226311 0.000000 0.000000
											CHANNELS 3 Xrotation Yrotation Zrotation
											JOINT mixamorig:LeftHandPinky4
											{
												OFFSET 2.001915 0.000000 0.000000
												CHANNELS 3 Xrotation Yrotation Zrotation
												End Site
												{
													OFFSET 2.001892 -0.000168 -0.006998
												}
											}
										}
									}
								}
							}
						}
					}
				}
				JOINT mixamorig:RightShoulder
				{
					OFFSET -6.584100 13.564331 -1.782145
					CHANNELS 3 Xrotation Yrotation Zrotation
					JOINT mixamorig:RightArm
					{
						OFFSET -13.322087 -3.531387 -0.015528
						CHANNELS 3 Xrotation Yrotation Zrotation
						JOINT mixamorig:RightForeArm
						{
							OFFSET -25.995886 0.000000 -0.000000
							CHANNELS 3 Xrotation Yrotation Zrotation
							JOINT mixamorig:RightHand
							{
								OFFSET -23.930798 0.000000 -0.000000
								CHANNELS 3 Xrotation Yrotation Zrotation
								JOINT mixamorig:RightHandThumb1
								{
									OFFSET -3.103348 -1.214722 2.665987
									CHANNELS 3 Xrotation Yrotation Zrotation
									JOINT mixamorig:RightHandThumb2
									{
										OFFSET -2.644638 -1.526886 1.526883
										CHANNELS 3 Xrotation Yrotation Zrotation
										JOINT mixamorig:RightHandThumb3
										{
											OFFSET -2.548042 -1.471115 1.471114
											CHANNELS 3 Xrotation Yrotation Zrotation
											JOINT mixamorig:RightHandThumb4
											{
												OFFSET -2.086876 -1.204865 1.204859
												CHANNELS 3 Xrotation Yrotation Zrotation
												End Site
												{
													OFFSET -1.801620 -1.154358 1.637092
												}
											}
										}
									}
								}
								JOINT mixamorig:RightHandIndex1
								{
									OFFSET -9.891205 -0.413467 2.629802
									CHANNELS 3 Xrotation Yrotation Zrotation
									JOINT mixamorig:RightHandIndex2
									{
										OFFSET -3.265656 0.000000 0.000000
										CHANNELS 3 Xrotation Yrotation Zrotation
										JOINT mixamorig:RightHandIndex3
										{
											OFFSET -3.106102 0.000000 0.000000
											CHANNELS 3 Xrotation Yrotation Zrotation
											JOINT mixamorig:RightHandIndex4
											{
												OFFSET -2.514259 0.000000 0.000000
												CHANNELS 3 Xrotation Yrotation Zrotation
												End Site
												{
													OFFSET -2.514099 -0.000443 -0.027997
												}
											}
										}
									}
								}
								JOINT mixamorig:RightHandMiddle1
								{
									OFFSET -10.108925 0.000000 0.000000
									CHANNELS 3 Xrotation Yrotation Zrotation
									JOINT mixamorig:RightHandMiddle2
									{
										OFFSET -3.489250 0.000000 0.000000
										CHANNELS 3 Xrotation Yrotation Zrotation
										JOINT mixamorig:RightHandMiddle3
										{
											OFFSET -3.236908 0.000000 0.000000
											CHANNELS 3 Xrotation Yrotation Zrotation
											JOINT mixamorig:RightHandMiddle4
											{
												OFFSET -2.756126 0.000000 0.000000
												CHANNELS 3 Xrotation Yrotation Zrotation
												End Site
												{
													OFFSET -2.756096 -0.000214 -0.011498
												}
											}
										}
									}
								}
								JOINT mixamorig:RightHandRing1
								{
									OFFSET -9.832733 -0.175018 -2.119855
									CHANNELS 3 Xrotation Yrotation Zrotation
									JOINT mixamorig:RightHandRing2
									{
										OFFSET -2.832802 0.000000 0.000000
										CHANNELS 3 Xrotation Yrotation Zrotation
										JOINT mixamorig:RightHandRing3
										{
											OFFSET -2.766335 0.000000 0.000000
											CHANNELS 3 Xrotation Yrotation Zrotation
											JOINT mixamorig:RightHandRing4
											{
												OFFSET -2.344864 0.000000 0.000000
												CHANNELS 3 Xrotation Yrotation Zrotation
												End Site
												{
													OFFSET -2.344795 0.000473 0.017694
												}
											}
										}
									}
								}
								JOINT mixamorig:RightHandPinky1
								{
									OFFSET -8.564178 -0.350037 -4.300325
									CHANNELS 3 Xrotation Yrotation Zrotation
									JOINT mixamorig:RightHandPinky2
									{
										OFFSET -2.646233 0.000000 0.000000
										CHANNELS 3 Xrotation Yrotation Zrotation
										JOINT mixamorig:RightHandPinky3
										{
											OFFSET -2.261864 0.000000 0.000000
											CHANNELS 3 Xrotation Yrotation Zrotation
											JOINT mixamorig:RightHandPinky4
											{
												OFFSET -1.954506 0.000000 0.000000
												CHANNELS 3 Xrotation Yrotation Zrotation
												End Site
												{
													OFFSET -1.954498 0.000092 0.004099
												}
											}
										}
									}
								}
							}
						}
					}
				}
			}
		}
	}
	JOINT mixamorig:LeftUpLeg
	{
		OFFSET 7.983700 -5.694298 -0.735200
		CHANNELS 3 Xrotation Yrotation Zrotation
		JOINT mixamorig:LeftLeg
		{
			OFFSET 1.208505 -42.761528 -3.138802
			CHANNELS 3 Xrotation Yrotation Zrotation
			JOINT mixamorig:LeftFoot
			{
				OFFSET -1.208506 -38.163300 -2.010041
				CHANNELS 3 Xrotation Yrotation Zrotation
				JOINT mixamorig:LeftToeBase
				{
					OFFSET 1.841840 -10.410353 14.836088
					CHANNELS 3 Xrotation Yrotation Zrotation
					JOINT mixamorig:LeftToe_End
					{
						OFFSET 0.820596 -0.120798 6.988551
						CHANNELS 3 Xrotation Yrotation Zrotation
						End Site
						{
							OFFSET 0.820596 -0.120798 6.988551
						}
					}
				}
			}
		}
	}
	JOINT mixamorig:RightUpLeg
	{
		OFFSET -7.983700 -5.694298 -0.831100
		CHANNELS 3 Xrotation Yrotation Zrotation
		JOINT mixamorig:RightLeg
		{
			OFFSET -1.208402 -42.761509 -2.372174
			CHANNELS 3 Xrotation Yrotation Zrotation
			JOINT mixamorig:RightFoot
			{
				OFFSET 1.208405 -38.162746 -2.730814
				CHANNELS 3 Xrotation Yrotation Zrotation
				JOINT mixamorig:RightToeBase
				{
					OFFSET -1.842189 -10.413905 14.893202
					CHANNELS 3 Xrotation Yrotation Zrotation
					JOINT mixamorig:RightToe_End
					{
						OFFSET -0.820738 -0.122444 6.961618
						CHANNELS 3 Xrotation Yrotation Zrotation
						End Site
						{
							OFFSET -0.820738 -0.122444 6.961618
						}
					}
				}
			}
		}
	}
}
MOTION
Frames: 5
Frame Time: 0.033333
-0.042086 96.398720 0.996558 3.816264 -3.697093 -0.123652 0.170171 0.315239 -0.046000 0.511369 0.555629 -0.149995 0.508117 0.557000 -0.156049 -12.568407 -1.447528 2.637434 10.197546 3.163033 -2.584844 0.000000 0.000000 -0.000000 1.604993 -11.385834 -9.553374 4.329747 -15.662819 -64.423048 0.000004 -12.874968 0.000009 1.693016 -1.937950 -8.457170 0.699770 -6.020112 19.223933 19.074673 26.512417 -1.026332 3.271079 -0.981158 3.963640 -0.000006 0.000001 -0.000000 0.460237 4.491398 -23.662343 0.883080 3.094841 -31.844203 0.339544 1.967252 -19.583711 -0.000000 0.000002 0.000001 2.486443 8.732143 -25.419669 1.496307 3.911568 -41.853982 0.476271 2.315663 -23.241544 0.000000 0.000003 0.000000 3.090027 8.505091 -34.940352 1.098182 3.416397 -35.630273 0.533261 2.443998 -24.613770 0.000000 -0.000004 -0.000000 3.603237 12.761709 -45.581302 0.673749 2.729589 -27.725806 0.090003 1.024042 -10.045311 -0.000001 -0.000002 -0.000000 2.087506 14.855921 10.815202 -4.515519 3.403567 66.314607 0.000013 7.533702 0.000001 10.827173 0.054042 8.057274 -13.495594 -11.552017 -5.371119 13.666572 -20.582652 -6.820362 3.162448 -4.141728 -22.215043 0.000002 0.000001 -0.000000 0.246056 -3.262784 18.902287 0.589444 -2.269663 29.112640 0.172143 -1.255811 15.610681 0.000001 0.000005 0.000000 -0.702519 -1.215799 21.259782 0.924229 -2.786651 36.691855 0.558005 -2.212352 28.309403 -0.000000 0.000003 0.000000 -0.941521 -2.664831 38.529258 0.358949 -1.794605 22.620028 0.313737 -1.682015 21.129352 -0.000000 -0.000002 -0.000001 -2.260366 -1.124648 39.408132 0.612387 -2.310404 29.687598 0.130093 -1.094188 13.559641 0.000001 -0.000003 0.000000 -12.735754 11.852467 10.238243 11.877356 4.869065 2.196203 -2.324358 0.746475 -9.665825 0.322160 0.000814 -0.243631 -0.000000 0.000001 -0.000000 -11.580634 -8.306179 -8.349002 6.317687 1.299122 -2.877619 1.391913 -0.322561 10.132403 0.394076 -0.002823 0.295018 0.000000 0.000000 -0.000000 
-0.095854 96.388084 0.665118 3.932696 -3.813094 -0.083724 0.304818 0.321102 -0.074640 0.739135 0.564631 -0.173897 0.735917 0.566561 -0.179759 -13.023392 -1.431833 2.557326 9.439427 3.102092 -2.583489 -0.000000 -0.000000 -0.000000 1.559835 -11.722516 -9.803762 2.376112 -16.026178 -63.151424 -0.000004 -13.236493 -0.000024 0.856556 -2.649673 -6.198364 0.699768 -6.020110 19.223929 19.485532 27.133719 -1.459051 3.146141 -1.350058 4.531327 -0.000004 -0.000003 -0.000002 0.422656 4.414394 -24.217891 0.892248 3.109520 -32.013421 0.320288 1.912275 -19.014634 -0.000000 0.000002 0.000003 2.570806 8.777958 -26.166692 1.502861 3.918861 -41.949991 0.476531 2.316250 -23.247727 0.000001 0.000000 0.000000 3.068521 8.463760 -35.048877 1.094598 3.411390 -35.569972 0.537307 2.452807 -24.708653 0.000000 -0.000001 0.000000 3.576404 12.700691 -45.745291 0.674047 2.730154 -27.732173 0.091414 1.032004 -10.124332 0.000002 0.000001 -0.000000 2.022378 15.234281 10.937725 -5.708976 5.151556 64.792185 0.000005 7.770660 0.000025 11.353011 0.522347 6.874620 -13.495596 -11.552019 -5.371124 14.799437 -22.243396 -5.743299 3.155516 -4.000861 -22.196081 0.000002 0.000003 -0.000004 0.220885 -3.141886 19.544007 0.611366 -2.308602 29.662166 0.171821 -1.254644 15.595615 -0.000002 0.000004 0.000003 -0.870772 -0.926224 22.177838 0.929674 -2.793915 36.803409 0.557422 -2.211270 28.294231 -0.000000 0.000002 -0.000001 -1.267735 -2.378163 39.735035 0.359837 -1.796732 22.648275 0.312209 -1.678070 21.077421 -0.000000 0.000000 0.000001 -2.676248 -0.759288 40.312176 0.596858 -2.282962 29.299917 0.127372 -1.082880 13.416732 0.000000 0.000002 -0.000000 -13.337176 11.666473 10.262602 12.495047 5.076823 2.206333 -2.426144 0.734431 -9.448308 0.200136 0.000318 -0.151576 0.000000 0.000003 0.000000 -12.202730 -8.045111 -8.279663 6.903943 1.225869 -2.992961 1.317808 -0.304476 10.077326 0.432918 -0.003238 0.324040 0.000000 0.000000 0.000000 
-0.115116 96.329285 0.111485 4.148165 -3.902447 -0.082527 0.427225 0.343253 -0.112877 0.943637 0.605215 -0.170719 0.940394 0.607433 -0.176100 -13.483359 -1.402735 2.459274 8.767599 3.053099 -2.528369 -0.000000 0.000000 0.000000 1.539959 -11.882594 -9.893961 -0.353010 -17.272520 -61.461478 -0.000029 -13.679040 0.000016 -0.225816 -3.251360 -4.455126 0.699770 -6.020111 19.223929 19.721878 27.515663 -1.726106 3.058897 -1.562286 4.876867 -0.000002 -0.000003 0.000002 0.369751 4.307404 -24.687722 0.899387 3.120910 -32.144936 0.305814 1.869785 -18.576115 0.000000 -0.000001 0.000002 2.618994 8.776873 -26.754259 1.508929 3.925591 -42.038984 0.476617 2.316450 -23.249672 0.000000 0.000000 -0.000001 3.023580 8.396996 -35.084264 1.094623 3.411442 -35.570625 0.540757 2.460274 -24.789009 -0.000000 -0.000000 -0.000000 3.499841 12.626615 -45.640936 0.669657 2.721803 -27.639872 0.092307 1.036980 -10.173762 -0.000000 0.000001 -0.000001 1.999530 15.447257 10.822256 -7.617983 7.841450 62.984828 -0.000008 8.026329 0.000008 11.882665 1.033156 5.810393 -13.495596 -11.552014 -5.371119 15.408152 -23.090184 -5.161170 3.142287 -3.885790 -22.225936 0.000003 -0.000001 -0.000000 0.216618 -3.131148 20.340556 0.629852 -2.340703 30.117449 0.171585 -1.253804 15.585062 -0.000001 0.000001 0.000003 -0.993016 -0.750094 22.938420 0.933945 -2.799605 36.890624 0.556844 -2.210196 28.279423 -0.000000 -0.000000 0.000000 -1.516256 -2.184985 40.696521 0.361510 -1.800738 22.701688 0.311917 -1.677308 21.067333 0.000001 -0.000002 0.000002 -2.982835 -0.508893 40.987183 0.588528 -2.268038 29.089629 0.125128 -1.073417 13.297474 -0.000001 -0.000001 0.000000 -14.396394 11.403166 10.418969 13.513777 5.278030 2.128282 -2.578718 0.720523 -9.353545 0.179752 0.000251 -0.136212 -0.000000 -0.000000 0.000000 -13.403310 -7.627775 -8.214406 8.219388 1.079845 -3.094117 1.009236 -0.286168 9.948205 0.546494 -0.003484 0.409055 0.000000 0.000001 -0.000000 
-0.129636 96.135086 -0.617205 4.605971 -4.023662 -0.086085 0.571620 0.364049 -0.161884 1.184295 0.648496 -0.162121 1.180985 0.651162 -0.167022 -13.998786 -1.342714 2.343738 8.227690 3.094181 -2.398916 -0.000000 0.000000 0.000000 1.549572 -11.939210 -9.743863 -3.759165 -19.408107 -59.375866 0.000010 -14.494303 0.000008 -1.860018 -3.678033 -3.162537 0.699767 -6.020112 19.223929 19.856977 27.784392 -1.908754 3.003534 -1.697096 5.116354 -0.000001 0.000001 -0.000000 0.311063 4.192968 -25.136570 0.905931 3.131283 -32.264933 0.295311 1.838238 -18.251334 -0.000001 -0.000003 0.000000 2.639549 8.737169 -27.255035 1.513994 3.931167 -42.112433 0.476625 2.316488 -23.250372 -0.000001 -0.000001 0.000000 2.950972 8.299095 -35.040551 1.095656 3.412856 -35.587676 0.543715 2.466668 -24.857888 -0.000000 -0.000004 -0.000001 3.372751 12.527465 -45.319306 0.661749 2.706637 -27.472416 0.092892 1.040229 -10.205912 0.000001 -0.000000 -0.000001 2.026441 15.507267 10.368119 -10.304828 11.625045 61.019230 -0.000016 8.358448 0.000012 11.634911 1.890390 4.988889 -13.495591 -11.552017 -5.371120 15.619468 -23.369158 -4.963546 3.140453 -3.864968 -22.210380 -0.000003 0.000003 -0.000006 0.213669 -3.128541 20.995916 0.636539 -2.352184 30.280687 0.171150 -1.252210 15.564734 -0.000000 -0.000001 0.000001 -1.118481 -0.559055 23.562775 0.935526 -2.801723 36.923405 0.555786 -2.208206 28.251274 -0.000001 -0.000001 0.000000 -1.765663 -1.987706 41.485763 0.363980 -1.806603 22.779813 0.310645 -1.674029 21.024181 -0.000002 0.000001 -0.000001 -3.360629 -0.171935 41.556435 0.583827 -2.259602 28.971081 0.123298 -1.065610 13.198979 0.000000 0.000000 0.000002 -16.510760 11.057076 10.859891 15.959628 5.339730 1.837374 -3.356873 0.731314 -9.194788 0.182527 0.000277 -0.138386 -0.000000 0.000004 0.000000 -15.737738 -7.079204 -8.269996 11.124765 0.986571 -3.063350 0.000458 -0.294685 9.706901 0.651898 -0.003343 0.487911 0.000000 0.000001 -0.000000 
-0.161268 95.695114 -1.482442 5.029632 -4.176745 -0.048487 0.790162 0.368352 -0.189894 1.551652 0.664185 -0.159254 1.548232 0.668207 -0.163857 -14.620056 -1.261388 2.227931 7.696481 3.230978 -2.252971 -0.000000 0.000000 -0.000000 1.585040 -12.034102 -9.260520 -7.726843 -22.330171 -56.916567 0.000013 -15.691323 0.000006 -4.004584 -3.991671 -1.998855 0.699768 -6.020118 19.223933 19.950882 27.984257 -2.044050 2.951636 -1.824976 5.328179 0.000002 -0.000006 -0.000005 0.254177 4.084445 -25.493936 0.910246 3.138082 -32.343722 0.286879 1.812482 -17.986644 0.000001 0.000002 0.000000 2.653441 8.698410 -27.679205 1.515922 3.933306 -42.140741 0.476746 2.316773 -23.253249 0.000001 -0.000001 -0.000003 2.853901 8.171708 -34.937114 1.094669 3.411515 -35.571403 0.545807 2.471190 -24.906613 0.000000 -0.000000 -0.000001 3.226322 12.415530 -44.913695 0.653610 2.690964 -27.299884 0.093487 1.043547 -10.238631 0.000000 0.000002 0.000001 2.106709 15.436560 9.489592 -13.679819 16.484950 59.024466 0.000013 8.836160 -0.000012 10.100068 3.278343 4.409693 -13.495593 -11.552018 -5.371119 15.552360 -23.275135 -5.030062 3.121974 -3.805185 -22.293367 0.000003 -0.000000 0.000001 0.195369 -3.057383 21.226903 0.634946 -2.349450 30.241837 0.170347 -1.249358 15.528445 -0.000001 -0.000002 -0.000002 -1.282490 -0.273028 24.073435 0.936274 -2.802715 36.938691 0.554234 -2.205322 28.211109 0.000000 0.000004 -0.000003 -2.067771 -1.729489 42.149285 0.367183 -1.814226 22.881400 0.308112 -1.667420 20.937388 0.000000 -0.000004 0.000000 -3.874699 0.305218 42.121254 0.580640 -2.253836 28.890194 0.121653 -1.058579 13.110273 0.000001 0.000003 0.000000 -19.625107 10.712703 11.619710 20.365416 5.052529 1.281732 -5.085437 0.777401 -8.768957 0.119560 0.000116 -0.090925 0.000000 -0.000002 -0.000000 -19.006480 -6.544756 -8.576968 15.790590 1.042001 -2.817741 -1.818297 -0.339201 9.443986 0.661768 -0.003980 0.495374 0.000000 -0.000001 -0.000000 
